<svg width="24" height="24" viewBox="0 0 24 24" fill="none" xmlns="http://www.w3.org/2000/svg">
  <!-- Coral-inspired icon: stylized coral/reef shape -->
  <circle cx="12" cy="12" r="11" fill="#3D4F9B"/>
  <path d="M12 4C12 4 9 7 9 10C9 11.5 9.5 12.5 10 13.5C10.5 14.5 10 16 8 17" stroke="#E48664" stroke-width="2" stroke-linecap="round"/>
  <path d="M12 4C12 4 15 7 15 10C15 11.5 14.5 12.5 14 13.5C13.5 14.5 14 16 16 17" stroke="#E48664" stroke-width="2" stroke-linecap="round"/>
  <path d="M12 4C12 4 12 8 12 10C12 12 11.5 14 12 16C12.5 18 12 20 12 20" stroke="#E48664" stroke-width="2" stroke-linecap="round"/>
  <circle cx="8" cy="17" r="1.5" fill="#E48664"/>
  <circle cx="16" cy="17" r="1.5" fill="#E48664"/>
  <circle cx="12" cy="20" r="1.5" fill="#E48664"/>
</svg>
